<svg width="33" height="33" viewBox="0 0 24 24" fill="#FFA500" xmlns="http://www.w3.org/2000/svg">
  <path d="M7.75 2h8.5C19.55 2 22 4.45 22 7.75v8.5c0 3.3-2.45 5.75-5.75 5.75h-8.5C4.45 22 2 19.55 2 16.25v-8.5C2 4.45 4.45 2 7.75 2zm0 2C5.68 4 4 5.68 4 7.75v8.5C4 18.32 5.68 20 7.75 20h8.5c2.07 0 3.75-1.68 3.75-3.75v-8.5C20 5.68 18.32 4 16.25 4h-8.5zm8.25 2.5a1.25 1.25 0 110 2.5 1.25 1.25 0 010-2.5zm-4.25 1a5.75 5.75 0 110 11.5 5.75 5.75 0 010-11.5zm0 2a3.75 3.75 0 100 7.5 3.75 3.75 0 000-7.5z"/>
</svg>